<?xml version="1.0" standalone="no"?>
<!DOCTYPE svg PUBLIC "-//W3C//DTD SVG 20010904//EN"
 "http://www.w3.org/TR/2001/REC-SVG-20010904/DTD/svg10.dtd">
<svg version="1.0" xmlns="http://www.w3.org/2000/svg"
 width="811.000000pt" height="811.000000pt" viewBox="0 0 811.000000 811.000000"
 preserveAspectRatio="xMidYMid meet">
<metadata>
Created by potrace 1.14, written by Peter Selinger 2001-2017
</metadata>
<g transform="translate(0.000000,811.000000) scale(0.100000,-0.100000)"
fill="#000000" stroke="none">
<path d="M8006 5342 c-2 -1 -30 -5 -62 -7 -32 -3 -79 -7 -104 -10 -25 -2 -72
-7 -105 -10 -33 -4 -76 -8 -95 -11 -19 -2 -57 -6 -85 -9 -84 -9 -98 -12 -164
-34 -113 -39 -211 -114 -280 -215 -30 -43 -69 -131 -77 -171 -16 -83 -19 -116
-18 -157 3 -69 12 -126 24 -148 6 -11 8 -20 5 -20 -10 0 47 -102 75 -134 26
-30 38 -41 78 -73 22 -17 23 -21 10 -48 -7 -17 -17 -34 -21 -40 -4 -5 -60
-100 -123 -209 -82 -143 -114 -208 -114 -232 0 -36 -7 -35 110 -20 66 8 137
16 205 22 91 7 95 8 109 35 7 13 28 51 46 84 102 185 120 218 120 226 0 5 5 9
12 9 6 0 9 3 5 6 -3 3 8 28 25 55 25 41 35 49 61 50 43 2 110 7 122 9 28 6 30
-7 30 -207 l0 -208 40 1 c22 0 72 4 110 8 39 5 87 9 108 11 22 2 41 6 45 9 3
3 5 329 6 723 l0 718 -48 0 c-26 0 -49 -1 -50 -3z m-211 -531 c-1 -94 -3 -173
-7 -176 -3 -3 -29 -7 -59 -10 -30 -2 -81 -8 -114 -12 -123 -15 -172 -2 -204
53 -47 80 -34 182 31 246 21 21 47 38 56 39 9 0 26 2 37 5 11 2 37 5 57 7 20
1 39 5 42 7 2 3 40 6 83 8 l79 3 -1 -170z"/>
<path d="M6565 5202 c-2 -2 -21 -5 -41 -7 -31 -2 -46 -11 -82 -51 -74 -82
-214 -234 -262 -284 -25 -26 -73 -78 -107 -116 -34 -38 -88 -97 -120 -131 -32
-34 -85 -92 -118 -128 -33 -36 -62 -65 -65 -65 -4 0 -7 20 -8 45 -2 60 -2 62
1 125 1 30 -1 61 -6 68 -5 6 -6 12 -1 12 11 0 11 91 0 108 -4 7 -4 12 1 12 10
0 10 91 -1 108 -4 7 -4 12 1 12 10 0 9 132 0 147 -4 7 -3 14 2 18 6 3 8 12 5
20 -4 8 -10 12 -15 9 -5 -3 -9 0 -9 7 0 7 -4 8 -12 2 -7 -5 -31 -11 -53 -12
-22 -1 -53 -4 -70 -6 -16 -2 -64 -7 -105 -11 -41 -3 -82 -8 -90 -10 -8 -1 -17
-3 -20 -3 -3 -1 -5 -326 -5 -723 l0 -723 49 0 c26 0 50 3 53 8 2 4 9 5 14 1 6
-3 24 10 42 29 18 18 73 78 122 132 50 53 117 126 150 160 33 35 76 81 95 103
19 22 81 89 136 148 56 60 119 128 141 152 21 23 43 42 48 42 6 0 10 -126 10
-343 l0 -342 30 1 c17 0 57 4 90 7 33 4 92 10 130 13 39 4 77 8 85 10 8 1 22
3 30 3 14 1 16 79 15 728 l-1 726 -27 1 c-15 1 -30 0 -32 -2z"/>
<path d="M4296 4963 c-1 -2 -34 -5 -72 -8 -38 -2 -69 -5 -69 -6 0 0 -18 -3
-40 -5 -22 -2 -56 -6 -75 -8 -19 -2 -41 -4 -47 -5 -9 -1 -13 -20 -13 -61 0
-33 -4 -61 -10 -61 -5 -1 -13 -2 -17 -3 -14 -3 -87 -18 -112 -23 -14 -2 -29
-7 -35 -10 -6 -4 -21 -8 -34 -9 -52 -6 -227 -102 -283 -156 -53 -49 -125 -148
-131 -179 -2 -8 -6 -16 -9 -19 -3 -3 -15 -41 -26 -86 -27 -111 -29 -270 -2
-367 10 -40 20 -77 22 -82 6 -22 57 -101 84 -130 60 -64 140 -109 243 -136 59
-15 107 -20 215 -22 l90 -2 3 -58 3 -57 67 5 c37 2 76 6 87 9 11 2 58 7 105
11 47 4 87 8 89 10 1 2 3 28 2 58 0 58 4 64 59 73 45 8 125 25 140 31 8 3 21
7 28 9 8 1 56 23 108 49 123 60 216 149 268 257 20 40 38 82 40 93 3 11 10 43
16 70 21 93 20 202 -5 345 -10 62 -60 153 -111 205 -94 96 -228 145 -414 150
-63 2 -118 4 -121 4 -3 1 -6 20 -6 44 -1 68 -2 74 -18 74 -8 0 -17 -2 -19 -4z
m181 -476 c59 -16 118 -67 136 -120 35 -99 6 -231 -68 -303 -22 -22 -82 -57
-88 -52 -2 2 -10 -2 -18 -8 -13 -10 -45 -20 -94 -30 -20 -3 -20 1 -19 259 1
144 2 264 3 265 2 5 122 -4 148 -11z m-494 -279 c0 -139 -1 -258 -2 -264 -2
-18 -118 -5 -180 20 -45 18 -61 31 -83 67 -15 24 -29 56 -32 71 -2 15 -7 32
-11 38 -3 5 -1 10 6 10 8 0 9 3 0 13 -6 8 -9 16 -7 18 3 2 7 24 10 48 3 23 16
62 30 86 27 45 98 109 110 98 3 -3 6 -1 6 5 0 7 3 11 8 10 4 -1 18 3 32 9 33
14 60 20 90 22 l25 1 -2 -252z"/>
<path d="M2377 4784 c-1 -1 -22 -4 -47 -7 -25 -3 -46 -6 -47 -6 -5 -2 -47
-106 -44 -110 1 -2 -1 -7 -6 -10 -5 -3 -32 -61 -61 -128 -29 -67 -67 -153 -84
-190 -17 -37 -32 -70 -33 -73 -8 -25 -19 -49 -30 -70 -7 -14 -13 -27 -13 -30
0 -3 -12 -32 -27 -65 -14 -33 -35 -78 -44 -100 -70 -157 -105 -241 -103 -247
1 -5 -3 -8 -8 -8 -6 0 -10 -5 -10 -11 0 -6 -16 -47 -36 -92 -19 -45 -43 -98
-51 -117 -8 -19 -29 -64 -45 -100 -38 -83 -58 -137 -58 -162 0 -17 6 -18 73
-13 39 3 83 7 97 9 14 3 61 8 104 11 80 6 106 16 106 41 0 7 6 19 13 26 6 7
13 20 15 28 2 15 33 91 39 99 2 3 16 6 31 7 15 1 52 5 82 9 30 4 69 8 85 10
84 8 174 17 205 21 19 2 65 7 101 10 l67 5 37 -78 c20 -43 42 -81 48 -85 11
-7 100 -2 157 8 14 2 56 7 94 10 103 9 101 8 104 40 2 21 -24 86 -89 219 -111
232 -199 412 -283 588 -35 72 -109 226 -165 340 -55 115 -101 213 -101 217 0
7 -66 10 -73 4z m63 -769 c12 -27 36 -79 52 -114 16 -34 27 -65 24 -69 -3 -3
-25 -6 -48 -7 -24 -2 -65 -6 -93 -9 -27 -3 -78 -8 -112 -11 l-62 -6 10 31 c6
16 16 30 22 30 6 0 8 3 5 6 -6 5 18 71 62 169 18 43 27 66 29 78 0 4 8 22 17
39 l17 32 27 -60 c15 -32 37 -81 50 -109z"/>
<path d="M1232 4648 c-18 -5 -32 -12 -32 -16 0 -4 -18 -28 -40 -52 -21 -25
-43 -50 -47 -55 -4 -6 -42 -51 -83 -100 -41 -50 -80 -97 -87 -105 -13 -16
-113 -136 -182 -218 -24 -29 -56 -68 -70 -87 -14 -19 -32 -36 -39 -40 -8 -3
-124 106 -299 283 -164 165 -287 282 -290 274 -3 -6 -9 -10 -14 -6 -5 3 -18 2
-29 -1 -20 -6 -20 -16 -20 -730 l0 -724 53 4 c136 12 262 27 266 31 2 2 4 146
4 319 0 285 2 314 16 302 8 -6 54 -49 101 -94 205 -197 207 -199 242 -158 35
39 78 90 96 111 19 23 107 124 162 186 l35 39 -1 -321 -1 -322 66 7 c36 4 82
9 101 10 19 2 58 6 85 10 28 3 64 7 82 9 18 1 35 5 39 8 3 4 6 330 6 725 l0
718 -44 0 c-25 1 -59 -3 -76 -7z"/>
<path d="M7244 3515 c-38 -82 -95 -204 -144 -310 -113 -244 -109 -234 -87
-236 6 -1 17 0 22 1 11 2 78 8 108 9 10 1 23 16 33 41 11 28 22 40 38 41 35 3
97 8 163 14 l63 7 17 -36 c14 -29 21 -35 41 -31 13 2 48 5 78 6 42 2 54 6 54
18 -1 9 -63 138 -140 286 l-138 270 -36 0 c-34 1 -36 -1 -72 -80z m86 -186 c0
-6 11 -34 25 -61 14 -28 23 -53 21 -55 -9 -9 -126 -19 -126 -11 0 4 11 32 25
62 14 30 25 60 25 65 0 6 7 11 15 11 8 0 15 -5 15 -11z"/>
<path d="M6848 3545 c-2 -2 -43 -6 -93 -10 -49 -3 -103 -8 -120 -11 -16 -2
-61 -6 -100 -9 -104 -8 -101 -6 -100 -78 l0 -62 40 1 c22 1 73 4 113 7 39 3
72 3 72 1 0 -3 -43 -83 -97 -177 -138 -246 -140 -250 -147 -274 -7 -22 -5 -23
46 -18 83 8 149 14 203 19 116 12 192 19 215 20 24 2 25 5 28 70 l3 68 -93 -6
c-51 -4 -108 -9 -125 -12 -38 -6 -40 0 -15 41 10 17 39 68 64 115 26 47 67
121 92 165 25 44 46 84 46 88 0 5 7 15 15 24 22 21 14 38 -18 39 -15 1 -28 0
-29 -1z"/>
<path d="M6298 3495 c-3 -4 -30 -8 -59 -11 -30 -3 -74 -7 -99 -9 -127 -12
-208 -19 -232 -19 -16 0 -28 -3 -28 -7 0 -4 -8 -6 -17 -5 -15 1 -17 -9 -18
-64 l0 -65 30 1 c17 1 67 4 113 8 45 4 82 5 82 2 0 -3 -10 -22 -22 -43 -34
-60 -101 -181 -143 -258 -21 -38 -47 -82 -57 -97 -11 -16 -16 -28 -11 -28 4 0
2 -4 -6 -9 -22 -14 -5 -42 21 -36 22 4 88 11 203 20 28 3 73 7 100 10 28 3 74
7 104 10 30 2 56 6 58 9 2 2 4 19 3 37 0 19 -1 48 -1 65 1 29 -1 31 -32 28
-17 -2 -57 -6 -87 -9 -30 -3 -72 -7 -92 -9 -21 -2 -38 0 -38 4 0 4 48 92 106
196 138 246 144 258 135 272 -4 7 -10 10 -13 7z"/>
<path d="M5568 3422 l-38 -3 0 -52 c-1 -29 -2 -161 -3 -294 -1 -156 2 -243 8
-244 6 -1 19 -1 30 0 11 1 41 3 67 4 26 1 50 6 54 10 4 4 7 136 7 294 l0 288
-44 0 c-24 0 -61 -1 -81 -3z"/>
<path d="M5109 3375 c-4 -3 -159 -19 -202 -19 l-27 -1 0 -298 1 -298 72 7 c77
7 90 11 82 24 -3 5 -2 11 3 14 8 5 8 29 1 90 -3 20 1 30 11 31 8 1 46 6 85 10
156 15 248 117 240 262 -7 110 -77 175 -196 179 -37 2 -68 1 -70 -1z m91 -155
c22 -22 26 -66 9 -104 -15 -33 -45 -44 -134 -49 -25 -2 -30 2 -29 21 0 12 -3
22 -7 22 -5 0 -5 10 0 22 4 13 5 35 1 49 -13 44 1 53 92 57 36 2 52 -2 68 -18z"/>
</g>
</svg>
